<svg xmlns="http://www.w3.org/2000/svg" width="1000" height="600" viewBox="0 0 1000 600" data-palette="e65956-e7af6a-f6acc6-42f962ac2f9e" role="img" aria-labelledby="integrations-light-title integrations-light-desc"><title id="integrations-light-title">GzhSeam integration routes</title><desc id="integrations-light-desc">Local article-preparation interfaces</desc><defs><linearGradient id="brand" gradientUnits="userSpaceOnUse" x2="1000" y2="600"><stop stop-color="#bf4a47"/><stop offset=".6" stop-color="#8d6a41"/><stop offset="1" stop-color="#906474"/></linearGradient><radialGradient id="halo"><stop stop-color="#bf4a47" stop-opacity=".22"/><stop offset="1" stop-color="#fef9f9" stop-opacity="0"/></radialGradient><filter id="glow"><feGaussianBlur stdDeviation="5"/></filter><pattern id="grid" width="40" height="40" patternUnits="userSpaceOnUse"><path d="M40 0H0V40" fill="none" stroke="#f7cccb" stroke-opacity=".35" stroke-width=".6"/></pattern><marker id="arrow" viewBox="0 0 10 10" refX="8" refY="5" markerWidth="5" markerHeight="5" orient="auto"><path d="m1 1 7 4-7 4" fill="none" stroke="#bf4a47" stroke-width="1.5"/></marker></defs><style>text{font-family:Arial,"Noto Sans",sans-serif}.flow{stroke-dasharray:10 110;animation:flow 6s linear infinite}.pulse{animation:pulse 5s ease-in-out infinite}.turn{transform-box:fill-box;transform-origin:center;animation:turn 36s linear infinite}@keyframes flow{to{stroke-dashoffset:-360}}@keyframes pulse{0%,100%{opacity:.45}50%{opacity:1}}@keyframes turn{to{transform:rotate(360deg)}}@media(prefers-reduced-motion:reduce){*{animation:none!important;transform:none!important}.flow{display:none}}</style><rect width="1000" height="600" rx="16" fill="#fef9f9"/><rect width="1000" height="600" rx="16" fill="url(#grid)"/><ellipse cx="630.0" cy="258.0" rx="500.0" ry="420.0" fill="url(#halo)"/><text x="44" y="44" fill="#725f6b" font-size="13" text-anchor="start" font-weight="400">CAPABILITIES / CONNECTIONS</text><text x="44" y="84.0" fill="#27161c" font-size="30" text-anchor="start" font-weight="400">Local article-preparation interfaces</text><ellipse cx="500" cy="337" rx="238" ry="176" fill="none" stroke="#f7cccb"/><ellipse cx="500" cy="337" rx="193" ry="144" fill="none" stroke="#f7cccb" stroke-dasharray="2 9"/><circle cx="500" cy="337" r="68" fill="#fef7f7" stroke="#bf4a47"/><text x="500" y="348" fill="#bf4a47" font-size="34" text-anchor="middle" font-weight="700">GZ</text><path d="M276 211H390V337H432" fill="none" stroke="#bf4a47" stroke-width="1.5" marker-end="url(#arrow)"/><path d="M276 211H390V337H432" class="flow" fill="none" stroke="#906474" stroke-width="2"/><rect x="40" y="156" width="236" height="112" rx="12" fill="#fef7f7" stroke="#f7cccb"/><text x="58" y="187.0" fill="#27161c" font-size="21" text-anchor="start" font-weight="400">HTML file</text><text x="58" y="239.0" fill="#725f6b" font-size="17" text-anchor="start" font-weight="400">UTF-8 input</text><path d="M568 337H662V211H724" fill="none" stroke="#bf4a47" stroke-width="1.5" marker-end="url(#arrow)"/><path d="M568 337H662V211H724" class="flow" fill="none" stroke="#906474" stroke-width="2"/><rect x="724" y="156" width="236" height="112" rx="12" fill="#fef7f7" stroke="#f7cccb"/><text x="742" y="187.0" fill="#27161c" font-size="21" text-anchor="start" font-weight="400">CLI wash</text><text x="742" y="239.0" fill="#725f6b" font-size="17" text-anchor="start" font-weight="400">Output file +</text><text x="742" y="262.8" fill="#725f6b" font-size="17" text-anchor="start" font-weight="400">verbose notes</text><path d="M276 357H390V337H432" fill="none" stroke="#bf4a47" stroke-width="1.5" marker-end="url(#arrow)"/><path d="M276 357H390V337H432" class="flow" fill="none" stroke="#906474" stroke-width="2"/><rect x="40" y="302" width="236" height="112" rx="12" fill="#fef7f7" stroke="#f7cccb"/><text x="58" y="333.0" fill="#27161c" font-size="21" text-anchor="start" font-weight="400">Python wash</text><text x="58" y="385.0" fill="#725f6b" font-size="17" text-anchor="start" font-weight="400">GzhCtx per-call</text><text x="58" y="408.8" fill="#725f6b" font-size="17" text-anchor="start" font-weight="400">overrides</text><path d="M568 337H662V357H724" fill="none" stroke="#bf4a47" stroke-width="1.5" marker-end="url(#arrow)"/><path d="M568 337H662V357H724" class="flow" fill="none" stroke="#906474" stroke-width="2"/><rect x="724" y="302" width="236" height="112" rx="12" fill="#fef7f7" stroke="#f7cccb"/><text x="742" y="333.0" fill="#27161c" font-size="21" text-anchor="start" font-weight="400">Font rules</text><text x="742" y="385.0" fill="#725f6b" font-size="17" text-anchor="start" font-weight="400">Sans / serif / mono</text><text x="742" y="408.8" fill="#725f6b" font-size="17" text-anchor="start" font-weight="400">fallback</text><path d="M276 503H390V337H432" fill="none" stroke="#bf4a47" stroke-width="1.5" marker-end="url(#arrow)"/><path d="M276 503H390V337H432" class="flow" fill="none" stroke="#906474" stroke-width="2"/><rect x="40" y="448" width="236" height="112" rx="12" fill="#fef7f7" stroke="#f7cccb"/><text x="58" y="479.0" fill="#27161c" font-size="21" text-anchor="start" font-weight="400">Editable</text><text x="58" y="508.4" fill="#27161c" font-size="21" text-anchor="start" font-weight="400">fragment</text><text x="58" y="531.0" fill="#725f6b" font-size="17" text-anchor="start" font-weight="400">Local HTML output</text></svg>
